

FULL_INFOs

99.99% - SYNCED GUARANTEED 

Source : BluRay ~ 720p

Absolute Supreme Sound Quality - 100% GUARANTEED 

My Media Player of Choice "VLC Media Player"

Spoken Language : English Only

Audio : 6 ~ Channels 


 
http://www.imdb.com/title/tt1290400/



Subs Info : MULTI_SUBS


Dutch Subtitles Included In Torrent File 
 
http://www.subtitleseeker.com/1290400/Double+Identity/Subtitles/

176 Subtitles In 23 Languages Use Link Provided 
 
http://www.subtitleseeker.com/1290400/Double+Identity/Subtitles/

176 Subtitles In 23 Languages Only @ SubtitleSeeker
 
http://www.subtitleseeker.com/1290400/Double+Identity/Subtitles/

All .srt subs can be turned On/Off


 
http://www.imdb.com/title/tt1290400/


General 

Complete name : Double Identity [aka Fake Identity] 2010.720p.BluRay.x264 . NVEE.mp4 
Format : MPEG-4 
Format profile : Base Media 
Codec ID : isom 
File size : 1 000 MiB 
Duration : 1h 32mn 
Overall bit rate : 1 504 Kbps 
Encoded date : UTC 2013-05-04 07:42:14 
Tagged date : UTC 2013-05-04 07:42:14 

Video 

ID : 1 
Format : AVC 
Format/Info : Advanced Video Codec 
Format profile : High@L3.1 
Format settings, CABAC : Yes 
Format settings, ReFrames : 4 frames 
Codec ID : avc1 
Codec ID/Info : Advanced Video Coding 
Duration : 1h 32mn 
Bit rate : 865 Kbps 
Maximum bit rate : 4 461 Kbps 
Width : 1 280 pixels 
Height : 720 pixels 
Display aspect ratio : 16:9 
Frame rate mode : Constant 
Frame rate : 23.976 fps 
Color space : YUV 
Chroma subsampling : 4:2:0 
Bit depth : 8 bits 
Scan type : Progressive 
Bits/(Pixel*Frame) : 0.039 
Stream size : 573 MiB (57%) 
Writing library : x264 core 130 r2273 b3065e6 
Encoded date : UTC 2013-05-04 06:23:55 
Tagged date : UTC 2013-05-04 07:44:43 

Audio 

ID : 2 
Format : AC-3 
Format/Info : Audio Coding 3 
Mode extension : CM (complete main) 
Format settings, Endianness : Big 
Codec ID : ac-3 
Duration : 1h 32mn 
Bit rate mode : Constant 
Bit rate : 640 Kbps 
Channel(s) : 6 channels 
Channel positions : Front: L C R, Side: L R, LFE 
Sampling rate : 48.0 KHz 
Bit depth : 16 bits 
Compression mode : Lossy 
Delay relative to video : 83ms 
Stream size : 425 MiB (43%) 
Title : 720p.BluRay.x264 . NVEE - [0] English.ac3#trackID=1:lang=en@GPAC0.5.1-DEV-rev4283 
Language : English 
Encoded date : UTC 2013-05-04 07:43:17 
Tagged date : UTC 2013-05-04 07:44:43 

Plot

An American doctor, Dr. Nicholas Pinter (Val Kilmer), working in Chechnya for Doctors Beyond Borders, is mistakenly identified as a secret agent by the Russian mob. He escapes a close brush with death and then rescued by the British Secret Service and a beautiful but mysterious woman named Katrine (Izabella Miko). His life dramatically changes when he helps this mysterious woman escape from her would-be assailant.

PLEASE SEED !!!
(Thank You)



